<svg width="12" height="11" viewBox="0 0 12 11" fill="none" xmlns="http://www.w3.org/2000/svg">
<path d="M11.652 1.59539C11.226 1.79055 10.6866 1.97373 10.2031 2.03462C10.6948 1.73315 11.4748 1.10524 11.652 0.537231C11.1927 0.816245 10.362 1.11423 9.82016 1.22204C9.38743 0.747864 8.77022 0.537231 8.08635 0.537231C6.77272 0.537231 5.85655 1.68773 5.85655 3.03288V4.03114C3.92473 4.03114 2.04121 2.51029 0.869079 1.03636C0.657138 1.40786 0.545868 1.83146 0.546948 2.26272C0.546948 3.17064 1.35397 4.09204 1.99291 4.53027C1.60317 4.51779 0.865215 4.21033 0.544051 4.03114V4.05959C0.544051 5.24103 1.34624 6.04314 2.43337 6.26675C2.23487 6.32315 1.99291 6.52679 1.06178 6.52679C1.36411 7.49261 2.88397 8.00322 3.92473 8.02418C3.11047 8.67655 1.65871 9.02244 0.544051 9.02244C0.351352 9.02244 0.247034 9.03342 0.0610962 9.01096C1.11297 9.69976 2.58212 10.0207 3.92473 10.0207C8.29885 10.0207 10.6861 6.56772 10.6861 3.34733C10.6861 3.24152 10.6827 2.88714 10.6774 2.78332C11.1449 2.44291 11.3342 2.08653 11.652 1.59539Z" fill="white"/>
</svg>
