<svg width="13" height="12" viewBox="0 0 13 12" fill="none" xmlns="http://www.w3.org/2000/svg">
<path d="M3.27736 3.97667H0.87686V11.0065H3.27736V3.97667Z" fill="white"/>
<path d="M2.87379 0.695987C2.64501 0.557456 2.37614 0.483525 2.10112 0.483521C1.9176 0.483518 1.7359 0.516442 1.56645 0.580399C1.39701 0.644356 1.24317 0.738084 1.11378 0.856194C0.984386 0.974304 0.881998 1.11446 0.812501 1.26861C0.743004 1.42276 0.70777 1.58786 0.708824 1.75442C0.710405 2.00403 0.793403 2.24762 0.947348 2.45446C1.10129 2.66131 1.31929 2.82214 1.57383 2.91667C1.82837 3.0112 2.10806 3.03519 2.37761 2.98562C2.64716 2.93604 2.89449 2.81512 3.08841 2.63811C3.28233 2.46111 3.41414 2.23594 3.46721 1.99102C3.52029 1.7461 3.49225 1.4924 3.38664 1.26192C3.28103 1.03144 3.10258 0.834519 2.87379 0.695987Z" fill="white"/>
<path d="M7.13063 3.97631H4.81814L4.81014 11.0207H7.21064V7.54208C7.21064 6.62704 7.40268 5.74104 8.65094 5.74104C9.89921 5.74104 9.89921 6.79407 9.89921 7.60745V11.0062H12.2997V7.14992C12.2997 5.25447 11.8116 3.80202 9.4111 3.80202C8.95358 3.78577 8.49979 3.88257 8.09815 4.0821C7.69651 4.28163 7.36211 4.57639 7.13063 4.93493V3.97631Z" fill="white"/>
</svg>
